<svg xmlns="http://www.w3.org/2000/svg" width="682.604" height="235.903" viewBox="0 0 682.604 235.903"><g transform="translate(-736 16706.3)"><path d="M152.74-80.3a35.545,35.545,0,0,1,20.228,6.062,39.673,39.673,0,0,1,4.366,3.6,35.553,35.553,0,0,1,6.481-3.851,30.707,30.707,0,0,1,3.12-1.3,27.764,27.764,0,0,1,6.213-1.8l0,.012c.553-.1,1.112-.183,1.665-.254a27.748,27.748,0,0,1,4.579-.4c.661,0,1.361.033,2.076.095.313,0,.64.015.977.034a25.483,25.483,0,0,1,5.554.631h0c1.533.27,2.58.5,3.44.711a31.864,31.864,0,0,1,6.868,2.523,42.913,42.913,0,0,1,3.852,2.18,33.288,33.288,0,0,1,4.885,3.973A31.525,31.525,0,0,1,230-64.7q.637.849,1.2,1.749a37.9,37.9,0,0,1,2.072,3.8l.489,1q.465.93.851,1.9a26.909,26.909,0,0,1,1.6,4.619q.022.09.044.18a25.8,25.8,0,0,1,.589,2.779q.271,1.036.452,2.092a24.643,24.643,0,0,1,3.857,5.06,25,25,0,0,1,1.506,3.12,26.884,26.884,0,0,1,1.844,11.752c-.015.245-.039.533-.069.844a26.9,26.9,0,0,1-.3,4.126q-.046.418-.1.842a26.715,26.715,0,0,1-1.147,5.718l-.032.1A26.831,26.831,0,0,1,246.27-2.59a25.64,25.64,0,0,1-4.152,13.945c-.052.081-.217.338-.374.579a27.3,27.3,0,0,1-5.985,6.7,29.168,29.168,0,0,1-3.39,2.832l-.261.184a25.476,25.476,0,0,1-4.483,2.88,25,25,0,0,1-3.277,1.358,26.679,26.679,0,0,1-8.573,1.354,31.382,31.382,0,0,1-6.8-.817q-.932-.233-1.843-.537l-.258-.088c-.456.065-.923.12-1.39.164a31.674,31.674,0,0,1-4.351.32,24.781,24.781,0,0,1-6.212-.019,28.512,28.512,0,0,1-4.738-.572,26.623,26.623,0,0,1-4.455-1.184,30.717,30.717,0,0,1-7.46-3.292l-.237-.14a25.647,25.647,0,0,1-3.413-2.387q-.346-.26-.7-.542l-.158.12A36.245,36.245,0,0,1,151.48,25.7a42.483,42.483,0,0,1-14.34-2.265q-.62-.24-1.22-.491l-4.041.263c-.883.085-2.388.148-3.849.148q-1.469,0-2.883-.084a24.951,24.951,0,0,1-8.526,1.071,62.261,62.261,0,0,1-7.606-.058,24.975,24.975,0,0,1-7.127-1.668c-1.214.022-2.3-.01-3.355-.08q-.772-.018-1.5-.059l-2.279-.169c-.377,0-1.448-.088-2.584-.206q-.444.166-.883.323a24.965,24.965,0,0,1-15.1.544,30.849,30.849,0,0,1-6.469.632c-.793.062-2.456.09-3.858.051a25,25,0,0,1-12.335,1.757c-.379.013-.873.022-1.364.022q-1.622,0-3.21-.124l-1.819-.069-9.415-.214c-1.448-.045-2.623-.126-3.528-.217q-.525-.053-1.048-.127a25.246,25.246,0,0,1-7.486-2.288,25.068,25.068,0,0,1-4.036,1.086,36.811,36.811,0,0,1-5.118.558l-1.26.07q-.831.055-1.664.055l-1.07.018A25.986,25.986,0,0,1-6.569,17.853,25.4,25.4,0,0,1-15.26-.006q-.079-2.86-.08-5.839V-11.2l.217-11.67c.027-.6.051-1.161.071-1.686a25,25,0,0,1-3.868-3.109A25,25,0,0,1-26.4-45.5c-.05-1.522-.07-2.52-.07-3.64l-.019-1.208q-.051-1.426-.051-2.852a25,25,0,0,1,25-25l3.814-.116c2.234-.1,4.614-.051,7.334-.148l7.915-.152q.234,0,.467,0h7.7l6.386.227q.538.02,1.069.062a25.2,25.2,0,0,1,3.325-.219l11.62-.07c.872-.029,2.33-.047,3.764-.047l3.03.019a25.009,25.009,0,0,1,6.837-1.336,74.384,74.384,0,0,1,8.382.042,66.879,66.879,0,0,1,8.354.98,39.287,39.287,0,0,1,9.59,3.018,24.967,24.967,0,0,1,7.313-2.015l2.553-.283a46.26,46.26,0,0,1,5.287-.534,24.2,24.2,0,0,1,9.742.565,24.984,24.984,0,0,1,6.9-.968q4.284,0,8.9.246a24.959,24.959,0,0,1,8.427,1.947A36.86,36.86,0,0,1,152.74-80.3Z" transform="matrix(1, 0, 0, 1, 763, -16626)" fill="#69b42b"/><path d="M609.56-135.6a45.6,45.6,0,0,1,26.318,7.742,46.675,46.675,0,0,1,15.962,19.229,59.3,59.3,0,0,1,5.31,20.269c.234,2.8.377,5.561.435,8.319a93.175,93.175,0,0,1-.284,9.374,24.959,24.959,0,0,1-8.234,16.623A48.276,48.276,0,0,1,657-33.575a52.6,52.6,0,0,1-3.4,27.824,50.98,50.98,0,0,1-17.07,22.338A47.9,47.9,0,0,1,607.04,26.4a60.53,60.53,0,0,1-20.361-3.105A51.222,51.222,0,0,1,576.243,17.9a24.971,24.971,0,0,1-13.079,5.9q-3.336.445-6.671.555-1.685.056-3.37.169-4.546.3-8.182.454a24.992,24.992,0,0,1-17.569-6.221,25.06,25.06,0,0,1-5.015.167l-4.217-.277q-2.494-.161-5.2-.464l-7.653-.551a25,25,0,0,1-4.661-.838,51.213,51.213,0,0,1-9.661,5.451c-5.441,2.574-12.614,4.045-20.6,4.045l-2.571-.048A44.567,44.567,0,0,1,445.051,19.7,24.92,24.92,0,0,1,429.66,25h-5.74q-.595,0-1.189-.028l-1.646-.042-1.238.032q-.693.038-1.387.038-1.672,0-4.515-.081c-2.675-.079-5.627-.08-8.144,0-1.855.058-3.189.082-4,.082q-1.134,0-2.263-.1c-.629-.057-1.314-.1-2.057-.126q-1.357-.052-2.819-.052-2.488,0-4.709-.09-2.2-.088-4.488-.264a24.945,24.945,0,0,1-17.135-8.74,24.933,24.933,0,0,1-13.015,6.73,48.647,48.647,0,0,1-6.763.733l-3.186.175c-1.627.108-3.261.054-4.728.108q-1.385.051-2.718.153a25,25,0,0,1-16.347-4.511A24.925,24.925,0,0,1,305.34,25H299.6q-.595,0-1.189-.028l-1.646-.042-1.238.032q-.693.038-1.387.038-1.672,0-4.515-.081c-2.675-.079-5.627-.08-8.144,0-1.855.058-3.189.082-4,.082q-1.133,0-2.263-.1c-.629-.057-1.314-.1-2.057-.126q-1.357-.052-2.819-.052-2.488,0-4.709-.09-2.2-.088-4.488-.264a24.941,24.941,0,0,1-16.868-8.431q-1.76,1.076-3.61,2.063a75.171,75.171,0,0,1-29.039,8.153,27.759,27.759,0,0,1-2.875.164,31.824,31.824,0,0,1-5.546-.506,27.638,27.638,0,0,1-10.486-4.137,24.968,24.968,0,0,1-7.275,2.128q-3.336.445-6.671.555-1.685.056-3.37.169-4.546.3-8.182.454a24.992,24.992,0,0,1-17.569-6.221,25.06,25.06,0,0,1-5.015.167l-4.217-.277q-2.494-.161-5.2-.464l-7.653-.551A25,25,0,0,1,122.9,16.8a51.214,51.214,0,0,1-9.661,5.451c-5.441,2.574-12.614,4.045-20.6,4.045l-2.571-.048A44.306,44.306,0,0,1,65.365,18.41q-1.981-1.453-3.772-2.993-1.812,1.5-3.794,2.877c-6.544,4.766-14.9,7.632-24.383,8.2-1.173.072-2.358.108-3.521.108A49.521,49.521,0,0,1,9.531,22.4q-.491-.219-.971-.46A56.686,56.686,0,0,1,.154,16.787a47.266,47.266,0,0,1-8.5-8.163A57.68,57.68,0,0,1-17.948-8.065a84.58,84.58,0,0,1-4.821-16.819,70.786,70.786,0,0,1-1.3-8.906l-.564-6.694Q-25-44.915-25-49.07V-55.3a129.841,129.841,0,0,1,2.614-24.5,80.882,80.882,0,0,1,8.868-24.454,63.6,63.6,0,0,1,17.281-20.22,53.517,53.517,0,0,1,29.422-10.657q.767-.047,1.536-.047a51.285,51.285,0,0,1,25.112,6.059q2.178,1.291,4.139,2.685a46.183,46.183,0,0,1,11.346-5.979q.641-.233,1.293-.431a53.944,53.944,0,0,1,15.65-2.347c.252,0,1.345.017,1.6.024a53.64,53.64,0,0,1,17.521,3.831,40.739,40.739,0,0,1,10.055,5.581A24.891,24.891,0,0,1,136.36-130.7h15.96a24.992,24.992,0,0,1,18.76,8.473,24.956,24.956,0,0,1,15.006-3.487,26.275,26.275,0,0,1,13.79-8.58,25.005,25.005,0,0,1,3.706-.635q4.988-.473,9.429-.466a63.861,63.861,0,0,1,23.564,4.075,56.577,56.577,0,0,1,12.641,6.9,24.9,24.9,0,0,1,15.092-4.151q2.481.124,5.087.186,2.925.07,6.237.2,3.638.01,7.134.163,3.7.161,7.57.483,2.854.238,5.59.357,1.7.074,3.359.18a24.888,24.888,0,0,1,14.175-4.4l3.416-.06,5.3-.2c4.381-.19,9.14-.1,14.474-.288l15.405-.292q.234,0,.467,0h15.4l11.845.437a24.909,24.909,0,0,1,11.614,3.351q1.155.041,2.336.069,2.925.07,6.237.2,3.638.01,7.134.163,3.7.161,7.57.483,2.854.238,5.59.357,3.544.154,6.945.452l5.289.261q3.53.191,6.582.577.789.1,1.562.245a46.114,46.114,0,0,1,12.414-6.773q.641-.233,1.293-.431a53.944,53.944,0,0,1,15.65-2.347c.252,0,1.345.017,1.6.024a53.64,53.64,0,0,1,17.521,3.831,40.738,40.738,0,0,1,10.055,5.581A24.891,24.891,0,0,1,514.08-130.7h15.96a24.992,24.992,0,0,1,18.76,8.473,24.928,24.928,0,0,1,19.458-2.693c.459.125.961.235,1.5.339q2.064.4,4.535.993l2.156.386q.767-.684,1.559-1.339a45.863,45.863,0,0,1,9.177-5.908A48.533,48.533,0,0,1,609.56-135.6Z" transform="matrix(1, 0, 0, 1, 761, -16497)" fill="#69b42b"/><path d="M53.2-74.62H47.04a10.267,10.267,0,0,0-2.1-.14v-2.52q0-1.4-.14-3.08a17.976,17.976,0,0,0-.28-3.22q-.28-1.54-.7-3.08a12.118,12.118,0,0,0-2.8-5.18,7.569,7.569,0,0,0-5.6-2.1,10.415,10.415,0,0,0-6.58,1.96A29.471,29.471,0,0,0,23.8-86.8a32.528,32.528,0,0,0-2.03,3.5q-.91,1.82-1.75,3.92a66.4,66.4,0,0,0-2.38,8.26,34.128,34.128,0,0,0-.84,4.13q-.28,2.03-.56,3.99t-.42,3.64q-.14,1.68-.14,3.08v3.15q0,1.75.14,3.85,0,1.96.14,4.2t.42,4.62q.28,2.38.63,4.76t.77,4.76a44.383,44.383,0,0,0,2.8,8.4,19.192,19.192,0,0,0,4.48,5.74,8.171,8.171,0,0,0,6.44,1.82,7.306,7.306,0,0,0,4.76-1.96,15.972,15.972,0,0,0,3.22-4.48A29.155,29.155,0,0,0,41.3-27.3q.28-1.54.42-3.22t.42-3.22a27.592,27.592,0,0,0,4.48.42q.98,0,1.89.07t1.75.07q.7,0,1.54.07t1.68.07q.84,0,1.75.07t2.03.21a46.807,46.807,0,0,1-.35,5.67,52.537,52.537,0,0,1-1.05,5.81A38.554,38.554,0,0,1,51.38-10.5a26.313,26.313,0,0,1-7.84,8.26A21.516,21.516,0,0,1,31.92,1.54,25.618,25.618,0,0,1,19.74-.42a31.469,31.469,0,0,1-4.69-2.87,22.154,22.154,0,0,1-3.99-3.85A33.366,33.366,0,0,1,5.32-17.22,58.772,58.772,0,0,1,1.82-29.4a50.953,50.953,0,0,1-.98-6.51Q.56-39.2.28-42.56T0-49.07V-55.3A103.515,103.515,0,0,1,2.1-74.76,56.354,56.354,0,0,1,8.26-91.98a39.078,39.078,0,0,1,10.64-12.6,28.679,28.679,0,0,1,15.82-5.6,26.586,26.586,0,0,1,13.02,2.94,23.379,23.379,0,0,1,8.12,7.84,34.638,34.638,0,0,1,3.92,11.34,62.678,62.678,0,0,1,.56,13.44Zm69.02,12.04q.14,3.08.21,6.09t-.07,6.09q-.14,2.8-.21,5.74t-.35,6.16q-.28,3.08-.63,6.09t-.91,5.81a61.546,61.546,0,0,1-3.08,11.06,32.323,32.323,0,0,1-5.46,8.96,23.4,23.4,0,0,1-8.4,5.88Q98.56,1.54,91,1.26A20.1,20.1,0,0,1,79.66-2.1a29.771,29.771,0,0,1-7.84-8.54q-1.54-2.8-2.8-5.74a41.556,41.556,0,0,1-2.1-6.3q-.84-3.36-1.47-6.79a67.981,67.981,0,0,1-.91-7.07q-.42-3.22-.63-7.14t-.35-8.68a132.511,132.511,0,0,1,.84-19.18,88.834,88.834,0,0,1,3.78-18.48,35.152,35.152,0,0,1,7.84-14,21.117,21.117,0,0,1,7.84-4.9,28.684,28.684,0,0,1,9.24-1.26,27.541,27.541,0,0,1,9.1,2.1,16.762,16.762,0,0,1,7.28,5.32q1.12,1.4,2.03,2.8t1.89,2.94q.84,1.54,1.61,3.08t1.47,3.22a31.243,31.243,0,0,1,1.26,3.01q.7,1.89,1.33,4.2t1.19,4.62a26.335,26.335,0,0,1,.7,4.13q.42,3.08.77,6.09T122.22-62.58ZM106.26-51.94a54.88,54.88,0,0,0,0-7.84q-.14-2.24-.28-4.34t-.42-4.34a34.305,34.305,0,0,0-.7-5.04,49.462,49.462,0,0,0-1.26-5.25,39.027,39.027,0,0,0-2.24-5.81,23.032,23.032,0,0,0-1.4-2.66L98.7-89.74a7.348,7.348,0,0,0-5.88-3.64,6.526,6.526,0,0,0-6.16,2.8l-1.4,1.54h.14a28.051,28.051,0,0,0-1.96,4.83,70.419,70.419,0,0,0-2.38,11.97,13.646,13.646,0,0,0-.35,2.66q-.07,1.54-.21,3.5t-.21,4.06q-.07,2.1-.07,4.34,0,2.38.07,4.76t.07,4.9q0,2.38.14,4.83t.42,4.83q.28,2.1.49,4.2t.63,4.2A29.812,29.812,0,0,0,84-22.68a18.817,18.817,0,0,0,3.22,5.32,6.441,6.441,0,0,0,4.62,2.38A7.811,7.811,0,0,0,98-16.66a14.7,14.7,0,0,0,4.06-5.46,29.839,29.839,0,0,0,2.52-7.7q.42-2.1.7-4.27t.42-4.27q.42-4.2.42-7.84v-3.22A20.467,20.467,0,0,1,106.26-51.94Zm64.96,13.02q1.82-7.7,3.36-15.54.7-3.92,1.4-7.7l1.4-7.56q.7-3.78,1.47-7.63t1.47-7.77q.84-3.92,1.68-7.77t1.96-7.91q1.54.42,3.36.77t4.06.91q2.38.42,4.69.84t4.83,1.12q-2.1,8.12-4.2,19.46-1.12,5.88-2.24,11.97t-2.38,12.67q-1.12,6.72-2.31,13.3t-2.45,13.44q-1.26,6.86-2.52,13.16T182.14-.98q-2.1.28-4.2.35t-4.2.21q-4.2.28-7.56.42-2.38-5.18-4.55-10.57T157.5-21.84q-1.96-5.88-3.71-11.62t-3.43-11.62q-.42,5.04-.84,10.15t-.84,10.29q-.42,5.32-1.05,9.94T146.3-6.02q-2.1-.14-4.27-.28t-4.55-.42q-2.24-.14-4.2-.28t-3.64-.28q1.12-11.62,2.1-23.52t2.1-24.5q2.24-24.92,2.52-50.4h15.96q2.38,8.26,4.69,16.59t4.41,16.87q1.96,8.68,4.48,16.94T171.22-38.92Zm82.74-30.94q.42,2.38.98,6.79a78.231,78.231,0,0,1,.56,9.8,82.162,82.162,0,0,1-.77,11.06A46.825,46.825,0,0,1,252-31.5a50.96,50.96,0,0,1-4.34,8.4q-2.52,3.92-5.18,7.42A39.317,39.317,0,0,1,228.9-4.06a50.371,50.371,0,0,1-19.6,5.32,4.61,4.61,0,0,1-1.75-.07q-1.19-.21-1.19-.63-.14-2.38-.42-8.75t-.56-14.77q-.28-8.4-.49-17.71t-.42-17.71q-.21-8.4-.28-14.77t.07-8.75q.28-7,.49-13.65t.07-13.23a1.251,1.251,0,0,1,1.12-1.26q13.3-1.26,21.42,1.96a30.217,30.217,0,0,1,13.72,10.5q1.54,1.96,3.01,3.92a24.819,24.819,0,0,1,2.59,4.34q1.12,2.38,2.17,4.55a39.28,39.28,0,0,1,1.89,4.69q.98,2.38,1.89,5.04A32.554,32.554,0,0,1,253.96-69.86Zm-15.4,12.6a64.213,64.213,0,0,0-1.4-16.38,31.529,31.529,0,0,0-2.03-6.02,21.02,21.02,0,0,0-3.36-5.25,15.476,15.476,0,0,0-4.9-3.71,14.993,14.993,0,0,0-6.65-1.4v70.28a17.3,17.3,0,0,0,9.1-5.6,28.245,28.245,0,0,0,3.36-4.62,35.42,35.42,0,0,0,3.01-6.65,50.775,50.775,0,0,0,2.1-8.96A79.158,79.158,0,0,0,238.56-57.26Zm73.08-43.82v1.47a15.66,15.66,0,0,1-.14,1.89q0,.98-.07,2.1t-.21,2.24a17.494,17.494,0,0,0-.14,2.17,7.352,7.352,0,0,1-.28,2.03q0,1.12-.07,2.03t-.07,1.61q-2.24-.14-4.41-.21t-4.27-.21q-2.1-.14-3.99-.21t-4.27-.07a68.613,68.613,0,0,0-.91,8.12q-.21,4.06-.35,8.54-.28,4.34-.28,8.82t.14,9.1q0,4.48.14,9.1t.28,9.1q.14,4.48.35,8.89t.35,8.47q1.54.14,2.87.14h2.87q1.54-.14,3.08-.14a25.029,25.029,0,0,1,3.5.28v3.5q0,1.96-.14,4.34,0,2.24-.07,4.2T305.34,0H299.6a53.191,53.191,0,0,0-5.46,0q-1.4,0-3.78-.07t-4.9-.07q-2.52,0-4.76.07T277.48,0q-1.54-.14-3.36-.21t-3.78-.07q-1.96,0-3.71-.07t-3.57-.21V-8.4q0-2.1.07-4.13t.07-3.99q1.96.14,3.78.28t3.5.14h6.86q-.14-4.06-.21-8.47t-.35-8.89q-.14-4.48-.28-9.1t-.14-9.1q-.14-4.76-.14-9.31T276.5-70q.14-4.48.42-8.82t.56-8.4h-2.66a19.21,19.21,0,0,0-2.38-.14q-1.26,0-2.8-.14h-3.01q-1.89,0-4.27-.14.14-2.1.21-4.27t.21-4.27q.14-2.1.14-3.92t.14-3.5q2.8.14,5.74.21t6.3.21q3.36,0,6.58.14t6.58.42q3.36.28,6.58.42t6.3.42q3.08.14,5.67.28T311.64-101.08Zm67.2-5.74q.14,3.78,0,7.56v7.56q-1.96-.14-4.62-.14H360.64q-3.78,0-7.98.14v11.83q0,5.95-.28,11.83-.14,6.02-.28,11.76t-.28,11.62q-.28,5.74-.42,11.27t-.28,10.85q-.14,5.32-.21,10.43t-.07,9.87a23.7,23.7,0,0,1-3.29.35q-1.75.07-3.85.21-2.1,0-3.99.07T336-1.4q-.14-5.04-.14-10.29V-22.4q.14-5.32.21-10.85t.21-11.27q.28-5.74.35-11.48t.21-11.76q.42-11.76.42-23.66L313.74-91q0-1.54-.07-3.29t-.07-3.99q0-2.24-.07-4.2t-.07-3.92q1.68,0,4.13-.07t5.67-.21q3.22-.14,6.79-.14t7.49-.14l14.98-.28h15.4Q375.06-106.96,378.84-106.82Zm57.12,5.74v1.47a15.66,15.66,0,0,1-.14,1.89q0,.98-.07,2.1t-.21,2.24a17.494,17.494,0,0,0-.14,2.17,7.352,7.352,0,0,1-.28,2.03q0,1.12-.07,2.03t-.07,1.61q-2.24-.14-4.41-.21t-4.27-.21q-2.1-.14-3.99-.21t-4.27-.07a68.613,68.613,0,0,0-.91,8.12q-.21,4.06-.35,8.54-.28,4.34-.28,8.82t.14,9.1q0,4.48.14,9.1t.28,9.1q.14,4.48.35,8.89t.35,8.47q1.54.14,2.87.14h2.87q1.54-.14,3.08-.14a25.029,25.029,0,0,1,3.5.28v3.5q0,1.96-.14,4.34,0,2.24-.07,4.2T429.66,0h-5.74a53.191,53.191,0,0,0-5.46,0q-1.4,0-3.78-.07t-4.9-.07q-2.52,0-4.76.07T401.8,0q-1.54-.14-3.36-.21t-3.78-.07q-1.96,0-3.71-.07t-3.57-.21V-8.4q0-2.1.07-4.13t.07-3.99q1.96.14,3.78.28t3.5.14h6.86q-.14-4.06-.21-8.47t-.35-8.89q-.14-4.48-.28-9.1t-.14-9.1q-.14-4.76-.14-9.31t.28-9.03q.14-4.48.42-8.82t.56-8.4h-2.66a19.21,19.21,0,0,0-2.38-.14q-1.26,0-2.8-.14h-3.01q-1.89,0-4.27-.14.14-2.1.21-4.27t.21-4.27q.14-2.1.14-3.92t.14-3.5q2.8.14,5.74.21t6.3.21q3.36,0,6.58.14t6.58.42q3.36.28,6.58.42t6.3.42q3.08.14,5.67.28T435.96-101.08Zm63.98,38.5q.14,3.08.21,6.09t-.07,6.09q-.14,2.8-.21,5.74t-.35,6.16q-.28,3.08-.63,6.09t-.91,5.81a61.546,61.546,0,0,1-3.08,11.06,32.324,32.324,0,0,1-5.46,8.96,23.4,23.4,0,0,1-8.4,5.88q-4.76,2.24-12.32,1.96A20.1,20.1,0,0,1,457.38-2.1a29.771,29.771,0,0,1-7.84-8.54q-1.54-2.8-2.8-5.74a41.555,41.555,0,0,1-2.1-6.3q-.84-3.36-1.47-6.79a67.979,67.979,0,0,1-.91-7.07q-.42-3.22-.63-7.14t-.35-8.68a132.509,132.509,0,0,1,.84-19.18,88.833,88.833,0,0,1,3.78-18.48,35.152,35.152,0,0,1,7.84-14,21.117,21.117,0,0,1,7.84-4.9,28.684,28.684,0,0,1,9.24-1.26,27.541,27.541,0,0,1,9.1,2.1,16.762,16.762,0,0,1,7.28,5.32q1.12,1.4,2.03,2.8t1.89,2.94q.84,1.54,1.61,3.08t1.47,3.22a31.247,31.247,0,0,1,1.26,3.01q.7,1.89,1.33,4.2t1.19,4.62a26.34,26.34,0,0,1,.7,4.13q.42,3.08.77,6.09T499.94-62.58ZM483.98-51.94a54.877,54.877,0,0,0,0-7.84q-.14-2.24-.28-4.34t-.42-4.34a34.309,34.309,0,0,0-.7-5.04,49.464,49.464,0,0,0-1.26-5.25,39.027,39.027,0,0,0-2.24-5.81,23.037,23.037,0,0,0-1.4-2.66l-1.26-2.52a7.348,7.348,0,0,0-5.88-3.64,6.526,6.526,0,0,0-6.16,2.8l-1.4,1.54h.14a28.049,28.049,0,0,0-1.96,4.83,70.422,70.422,0,0,0-2.38,11.97,13.645,13.645,0,0,0-.35,2.66q-.07,1.54-.21,3.5t-.21,4.06q-.07,2.1-.07,4.34,0,2.38.07,4.76t.07,4.9q0,2.38.14,4.83t.42,4.83q.28,2.1.49,4.2t.63,4.2a29.812,29.812,0,0,0,1.96,7.28,18.817,18.817,0,0,0,3.22,5.32,6.441,6.441,0,0,0,4.62,2.38,7.811,7.811,0,0,0,6.16-1.68,14.7,14.7,0,0,0,4.06-5.46,29.838,29.838,0,0,0,2.52-7.7q.42-2.1.7-4.27t.42-4.27q.42-4.2.42-7.84v-3.22A20.469,20.469,0,0,1,483.98-51.94Zm64.96,13.02q1.82-7.7,3.36-15.54.7-3.92,1.4-7.7l1.4-7.56q.7-3.78,1.47-7.63t1.47-7.77q.84-3.92,1.68-7.77t1.96-7.91q1.54.42,3.36.77t4.06.91q2.38.42,4.69.84t4.83,1.12q-2.1,8.12-4.2,19.46-1.12,5.88-2.24,11.97T569.8-53.06q-1.12,6.72-2.31,13.3t-2.45,13.44q-1.26,6.86-2.52,13.16T559.86-.98q-2.1.28-4.2.35t-4.2.21q-4.2.28-7.56.42-2.38-5.18-4.55-10.57t-4.13-11.27q-1.96-5.88-3.71-11.62t-3.43-11.62q-.42,5.04-.84,10.15t-.84,10.29q-.42,5.32-1.05,9.94t-1.33,8.68q-2.1-.14-4.27-.28t-4.55-.42Q512.96-6.86,511-7t-3.64-.28q1.12-11.62,2.1-23.52t2.1-24.5q2.24-24.92,2.52-50.4h15.96q2.38,8.26,4.69,16.59t4.41,16.87q1.96,8.68,4.48,16.94T548.94-38.92Zm83.44-33.74q-1.96.14-3.85.21t-3.85.21q-1.82,0-3.64-.07t-3.78-.21v-3.15q0-1.61-.14-3.57-.14-1.82-.35-3.57a22.853,22.853,0,0,0-.63-3.29,12.653,12.653,0,0,0-.91-2.94,21.077,21.077,0,0,0-1.33-2.52,5.7,5.7,0,0,0-4.62-2.24,7.468,7.468,0,0,0-4.76,1.54,9.678,9.678,0,0,0-2.94,3.78,16.733,16.733,0,0,0-1.54,4.76,12.416,12.416,0,0,0-.35,2.24q-.07,1.12-.21,2.24A27.488,27.488,0,0,0,600.6-68.6a22.971,22.971,0,0,0,2.24,4.2,27.808,27.808,0,0,0,3.5,4.2,86.055,86.055,0,0,0,9.24,7.98,59.208,59.208,0,0,1,9.24,7.98,24.135,24.135,0,0,1,7.42,14.14,27.729,27.729,0,0,1-1.82,14.98,26.224,26.224,0,0,1-8.96,11.76A22.907,22.907,0,0,1,607.04,1.4,36.661,36.661,0,0,1,595-.28a18.821,18.821,0,0,1-7.84-5.32,20.151,20.151,0,0,1-4.34-8.96,54.979,54.979,0,0,1-1.68-13.16,61.1,61.1,0,0,1,7.28-.42q1.82-.14,3.78-.14h4.06a5.453,5.453,0,0,1,.35,1.61,12.366,12.366,0,0,0,.35,2.03,15.775,15.775,0,0,0,1.12,4.62,11.009,11.009,0,0,0,3.08,3.78,10.186,10.186,0,0,0,5.88,1.54,7.51,7.51,0,0,0,5.32-1.82,9.236,9.236,0,0,0,3.08-4.62,13.231,13.231,0,0,0,.42-5.74,8.8,8.8,0,0,0-2.52-5.18q-1.96-2.1-4.13-4.06t-4.55-3.92q-2.38-1.82-4.69-3.64t-4.55-3.78a31.808,31.808,0,0,1-10.64-14.98,45.564,45.564,0,0,1-2.1-17.92,46.787,46.787,0,0,1,2.52-11.62,25.745,25.745,0,0,1,2.17-5.18,43.2,43.2,0,0,1,2.87-4.48,30.409,30.409,0,0,1,3.71-3.64,20.744,20.744,0,0,1,4.41-2.8,23.61,23.61,0,0,1,11.2-2.52,21.039,21.039,0,0,1,12.18,3.36,21.468,21.468,0,0,1,7.28,8.82,35.073,35.073,0,0,1,3.22,12.18q.28,3.36.35,6.72A68.209,68.209,0,0,1,632.38-72.66Z" transform="matrix(1, 0, 0, 1, 761, -16497)" fill="#fff"/><path d="M31.15-53.41q.07,1.89,0,3.78v3.78q-.98-.07-2.31-.07H22.05q-1.89,0-3.99.07v5.915q0,2.975-.14,5.915-.07,3.01-.14,5.88t-.14,5.81q-.14,2.87-.21,5.635t-.14,5.425q-.07,2.66-.1,5.215T17.15-1.12A11.85,11.85,0,0,1,15.5-.945Q14.63-.91,13.58-.84q-1.05,0-1.995.035T9.73-.7q-.07-2.52-.07-5.145V-11.2q.07-2.66.105-5.425t.1-5.635q.14-2.87.175-5.74t.1-5.88q.21-5.88.21-11.83L-1.4-45.5q0-.77-.035-1.645t-.035-2q0-1.12-.035-2.1T-1.54-53.2q.84,0,2.065-.035t2.835-.1q1.61-.07,3.395-.07t3.745-.07l7.49-.14h7.7Q29.26-53.48,31.15-53.41Zm27.93.91v4.83a10.8,10.8,0,0,0-.07,1.19,6.03,6.03,0,0,1-.07.98q-1.82,0-3.71-.035t-3.85.035q-1.96,0-3.675.035t-3.325.035q-.07,1.82-.1,3.815T44.17-37.38q-.07,2.24-.1,4.3T43.96-29.05a36.654,36.654,0,0,0,4.27.21H54.6q.07,1.05.07,2.065v2.2q0,1.12-.035,2.205T54.6-20.37a3.244,3.244,0,0,1-.63.07H48.23q-1.19,0-2.275-.035t-2-.105q-.07,1.61-.07,3.08t-.07,2.87q-.07,1.4-.07,3.01v3.43q.98,0,1.995.035t1.995.035q1.96.14,3.78.21,1.96.21,3.29.42.77.14,1.365.28t1.085.28q-.14.98-.28,2.03T56.7-2.52q-.14,1.12-.21,1.75T56.28.56A10.687,10.687,0,0,0,53.41.385,16.784,16.784,0,0,1,50.54.35q-1.4-.07-2.765-.1T45.01.21q-.7,0-1.855-.035L40.81.105,38.5.035Q37.38,0,36.68-.07q-.49-.07-.665-1.33T35.7-4.27a38.976,38.976,0,0,1-.07-4.13q.07-5.39.1-10.955T35.91-30.87q.14-5.88.28-11.515t.28-11.165q3.01,0,5.88-.035t5.74-.035q2.87-.07,5.6-.035t5.39.035Zm23.94,28q.49,1.26.91,2.45t.77,2.24q.35,1.12.7,2.135t.77,1.995q.77,2.1,1.54,3.92.21.49.525,1.33T88.9-8.645q.35.945.665,1.82a8.983,8.983,0,0,0,.6,1.365,17.393,17.393,0,0,1-3.29,2.52,12.594,12.594,0,0,1-1.995,1.05q-1.015.42-2,.77a6.636,6.636,0,0,1-.7-1.365q-.35-.875-.7-1.82t-.665-1.82Q80.5-7,80.29-7.49q-.35-.98-.7-1.89t-.7-1.89a38.713,38.713,0,0,1-1.26-3.92q-.35-.98-.735-2.03t-.805-2.17q-1.4.21-2.52.42-.56.14-1.19.28t-1.19.28q.07,2.1.07,4.27t.07,4.41q.07,2.24.035,4.3T71.19-1.54a5.266,5.266,0,0,1-1.47.14q-.56,0-1.155.035T67.27-1.33q-.7,0-1.33-.035T64.75-1.4H63.07V-55.02a49.521,49.521,0,0,1,5.565.035,42.012,42.012,0,0,1,5.215.6,17.165,17.165,0,0,1,8.19,4.06,17.157,17.157,0,0,1,4.13,5.81,20.869,20.869,0,0,1,1.61,7.07,17.944,17.944,0,0,1-.98,7A14.12,14.12,0,0,1,83.02-24.5ZM76.65-44.66a9.5,9.5,0,0,0-5.18-2.38,9.509,9.509,0,0,0-.175,1.365q-.035.665-.1,1.365t-.105,1.365q-.035.665-.035,1.435-.14,1.82-.14,3.64t.07,3.64q0,3.64.21,7.49a10.777,10.777,0,0,0,3.64-1.19,13.533,13.533,0,0,0,1.4-1.015A11.094,11.094,0,0,0,77.42-30.1a8.961,8.961,0,0,0,1.82-3.57,14.334,14.334,0,0,0,.42-3.99,13.779,13.779,0,0,0-.84-3.78A11.121,11.121,0,0,0,76.65-44.66Zm50.75-9.31q.56,3.29,1.05,6.51t1.05,6.44q.56,3.22,1.085,6.4t1.085,6.405q.49,3.22.945,6.44t.875,6.51q.35,3.36.665,6.615t.525,6.615q-.98.07-2.03.14t-2.24.14a25.439,25.439,0,0,1-4.62,0q-.35-2.52-.56-5.04t-.49-4.97q-.21-2.45-.525-5.075t-.805-5.355q-.77,2.66-1.435,5.39t-1.225,5.53A66.226,66.226,0,0,1,117.81-.63q-1.47-.07-3.22,0a21.9,21.9,0,0,1-3.5,0q-.98-2.94-1.89-5.74t-1.89-5.74q-.98-2.87-1.855-5.705T103.74-23.59q-.21,1.33-.385,2.695t-.385,2.765q-.14,1.4-.315,2.835t-.315,2.835q-.14,1.4-.28,2.765t-.28,2.625q-.14,1.26-.21,2.45t-.14,2.24h-.63a9.814,9.814,0,0,1-1.05-.07q-.7,0-1.33-.035t-1.4-.105q-1.33-.07-2.59-.21a11.6,11.6,0,0,1-1.4-.21q.28-6.16,1.05-12.46.35-3.15.77-6.265T95.69-28l.84-6.3q.42-3.15.77-6.3t.6-6.265q.245-3.115.385-6.265,1.19-.14,2.205-.245t1.855-.245a16,16,0,0,1,1.82-.175,18.367,18.367,0,0,0,1.89-.175q.84,4.34,1.68,8.4.42,2.03.84,4.025t.84,4.025q.42,2.03.875,3.955T111.3-29.61q.98,3.99,2.31,7.91.56-1.89.98-3.815t.77-3.955q.35-2.03.665-4.06t.665-4.06q.35-2.03.665-4.095t.665-4.165q.35-2.03.805-4.13t1.015-4.2Q123.48-54.18,127.4-53.97Zm36.75,17.64q-.98.07-1.925.1t-1.925.1q-.91,0-1.82-.035t-1.89-.105v-1.575q0-.805-.07-1.785-.07-.91-.175-1.785a11.422,11.422,0,0,0-.315-1.645,6.324,6.324,0,0,0-.455-1.47,10.536,10.536,0,0,0-.665-1.26,2.85,2.85,0,0,0-2.31-1.12,3.734,3.734,0,0,0-2.38.77,4.839,4.839,0,0,0-1.47,1.89,8.365,8.365,0,0,0-.77,2.38,6.205,6.205,0,0,0-.175,1.12q-.035.56-.1,1.12a13.744,13.744,0,0,0,.56,5.32,11.486,11.486,0,0,0,1.12,2.1,13.906,13.906,0,0,0,1.75,2.1,43.032,43.032,0,0,0,4.62,3.99,29.6,29.6,0,0,1,4.62,3.99,12.067,12.067,0,0,1,3.71,7.07,13.865,13.865,0,0,1-.91,7.49,13.112,13.112,0,0,1-4.48,5.88A11.453,11.453,0,0,1,151.48.7a18.33,18.33,0,0,1-6.02-.84,9.41,9.41,0,0,1-3.92-2.66,10.075,10.075,0,0,1-2.17-4.48,27.49,27.49,0,0,1-.84-6.58,30.548,30.548,0,0,1,3.64-.21q.91-.07,1.89-.07h2.03a2.726,2.726,0,0,1,.175.805,6.183,6.183,0,0,0,.175,1.015,7.889,7.889,0,0,0,.56,2.31,5.5,5.5,0,0,0,1.54,1.89,5.093,5.093,0,0,0,2.94.77,3.755,3.755,0,0,0,2.66-.91,4.618,4.618,0,0,0,1.54-2.31,6.616,6.616,0,0,0,.21-2.87,4.4,4.4,0,0,0-1.26-2.59q-.98-1.05-2.065-2.03t-2.275-1.96q-1.19-.91-2.345-1.82t-2.275-1.89a15.9,15.9,0,0,1-5.32-7.49,22.783,22.783,0,0,1-1.05-8.96,23.394,23.394,0,0,1,1.26-5.81,12.873,12.873,0,0,1,1.085-2.59,21.606,21.606,0,0,1,1.435-2.24,15.205,15.205,0,0,1,1.855-1.82,10.372,10.372,0,0,1,2.205-1.4,11.8,11.8,0,0,1,5.6-1.26,10.519,10.519,0,0,1,6.09,1.68,10.734,10.734,0,0,1,3.64,4.41,17.536,17.536,0,0,1,1.61,6.09q.14,1.68.175,3.36A34.1,34.1,0,0,1,164.15-36.33Zm35-16.87a1.647,1.647,0,0,1,.805.07,1.647,1.647,0,0,0,.8.07,2.95,2.95,0,0,1,.49-.07,2.95,2.95,0,0,1,.49.07.756.756,0,0,0,.455,0,.538.538,0,0,1,.385,0q.63.14,1.435.28t1.365.28a7.844,7.844,0,0,1,1.75.63,17.94,17.94,0,0,1,1.61.91,4.891,4.891,0,0,1,.63.56,6.989,6.989,0,0,1,.63.7,12.992,12.992,0,0,1,.7,1.295q.35.735.7,1.435.14.35.315.735a4.006,4.006,0,0,1,.245.665q0,.07-.035.07t-.035.07v.07q0,.14.07.175a.379.379,0,0,1,.14.175,1.109,1.109,0,0,1,.035.49,1.978,1.978,0,0,0,.035.63l.21.84q.07.21.14.385t.14.315a.34.34,0,0,1-.07.175.34.34,0,0,0-.07.175,6.007,6.007,0,0,0,.28,1.54,1.412,1.412,0,0,1-.21,1.47.814.814,0,0,1-.21.14l-.28.14a.756.756,0,0,1-.455,0,.538.538,0,0,0-.385,0l-1.12.28a2.2,2.2,0,0,1-.875.1,2.968,2.968,0,0,0-.8.035l-1.33.28a2.787,2.787,0,0,1-1.33-.035.975.975,0,0,1-.7-.735,1.891,1.891,0,0,1-.105-.84,3.861,3.861,0,0,0-.035-.91l-.7-2.38a6.415,6.415,0,0,0-.35-.84,2.355,2.355,0,0,0-.35-.56,2.123,2.123,0,0,0-.455-.315,2.123,2.123,0,0,1-.455-.315,1,1,0,0,0-.63-.175,2.517,2.517,0,0,1-.84-.1.285.285,0,0,1-.21-.07.285.285,0,0,0-.21-.07q-.14,0-.175.07t-.175.07a.66.66,0,0,1-.385.035,2.893,2.893,0,0,0-.385-.035,6.069,6.069,0,0,0-1.155.6,4.1,4.1,0,0,0-1.015.805,8.681,8.681,0,0,0-1.12,2.17,7.266,7.266,0,0,0-.28.91,2.275,2.275,0,0,0,0,1.12,1.431,1.431,0,0,1,0,.63,1.879,1.879,0,0,0,.1,1.19,8.389,8.389,0,0,1,.385,1.05.776.776,0,0,1-.035.245.319.319,0,0,0,.035.245,2.089,2.089,0,0,0,.1.665q.105.315.245.665a8.257,8.257,0,0,0,.455,1.015,4.365,4.365,0,0,1,.385,1.015q.14.35.28.63a5.432,5.432,0,0,1,.28.7.957.957,0,0,0,.245.35q.105.07.175.42a1.7,1.7,0,0,0,.42.56q.14.35.315.735a7.292,7.292,0,0,0,.385.735q.98,1.4,1.89,2.87t1.89,2.94l.84,1.12q.35.42.735.84a9.615,9.615,0,0,1,.735.91,1.078,1.078,0,0,1,.175.42.627.627,0,0,0,.175.35q.21.21.665.595a3.1,3.1,0,0,1,.665.735.342.342,0,0,1,.07.245q0,.175.14.175.07.07.245-.14a.671.671,0,0,0,.175-.28,1.519,1.519,0,0,0,.07-.805,2.575,2.575,0,0,1,.07-1.015,5.32,5.32,0,0,0,.21-.875,1.519,1.519,0,0,0-.07-.805.2.2,0,0,1-.07-.14.143.143,0,0,0-.035-.105.143.143,0,0,1-.035-.1l-.14-.28a1.089,1.089,0,0,0-.735-.035,1.622,1.622,0,0,1-.735.035.655.655,0,0,1-.49-.35,1.854,1.854,0,0,1-.175-.665q-.035-.385-.035-.77a3.741,3.741,0,0,0-.07-.735,3.535,3.535,0,0,1,0-1.4,2.456,2.456,0,0,0,.07-.7,4.347,4.347,0,0,0-.07-.84,1.151,1.151,0,0,0-.035-.28,2.158,2.158,0,0,1,.035-.63.955.955,0,0,1,.455-.7,5.312,5.312,0,0,1,.945-.28q.28-.07.77-.14a2.52,2.52,0,0,1,.84,0,.4.4,0,0,0,.28.14.546.546,0,0,0,.385,0,3.2,3.2,0,0,1,.525-.14,2.043,2.043,0,0,1,.84.035,2.023,2.023,0,0,0,.98-.035,10.654,10.654,0,0,1,1.19-.1q.77-.035,1.54-.035h1.505a3.787,3.787,0,0,1,1.155.14,3.479,3.479,0,0,0,1.19.07.783.783,0,0,1,.84.42,2.123,2.123,0,0,1,.1.91,7.047,7.047,0,0,1-.1.91,1.329,1.329,0,0,0-.035.8,2.231,2.231,0,0,1,.035.875,4.467,4.467,0,0,0-.14,1.085,2.979,2.979,0,0,1-.14.945v.56a1.379,1.379,0,0,1-.35.49l-.42.42a.923.923,0,0,1-.56-.035.674.674,0,0,0-.56.035q-.14.07-.28.49a2.222,2.222,0,0,0-.14.63.311.311,0,0,0,.035.14.488.488,0,0,1,.035.21l-.14.28q-.07.35-.14.91a7.658,7.658,0,0,0-.07.91.487.487,0,0,0,.035.21.311.311,0,0,1,.035.14.734.734,0,0,1-.1.385,1.936,1.936,0,0,0-.175.385,2.09,2.09,0,0,0-.07.945,2.469,2.469,0,0,1-.07,1.015q0,.07-.14.21a4.934,4.934,0,0,0-.175,1.05,3.874,3.874,0,0,1-.175.98l-.7,2.38a6.087,6.087,0,0,1-.455.77.633.633,0,0,0,.035.77,4.084,4.084,0,0,0,1.155,1.12,4.084,4.084,0,0,1,1.155,1.12.405.405,0,0,0,.07.28.61.61,0,0,0,.315.175.61.61,0,0,1,.315.175,8.527,8.527,0,0,1,.7.63q.35.35.77.7a3.444,3.444,0,0,1,.525.49q.245.28.455.49.35.35.77.735a1.1,1.1,0,0,1,.42.8,1.323,1.323,0,0,1-.245.525q-.245.385-.385.6a2.368,2.368,0,0,1-.56.63,3.672,3.672,0,0,1-.63.42,2.873,2.873,0,0,0-.735.7,4.256,4.256,0,0,1-.875.84l-.98.63a1.7,1.7,0,0,0-.21.245.528.528,0,0,1-.21.175,2.286,2.286,0,0,1-.665.07,3.13,3.13,0,0,1-.735-.07,2.36,2.36,0,0,1-.63-.42,6.266,6.266,0,0,0-.77-.56,2.293,2.293,0,0,1-.35-.28,2.294,2.294,0,0,0-.35-.28,1.549,1.549,0,0,1-.63-.49q-.28-.35-.49-.63a3.585,3.585,0,0,1-.6-.6,2.076,2.076,0,0,0-.455-.455,2.023,2.023,0,0,1-.525-.385.736.736,0,0,0-.525-.245,1.836,1.836,0,0,0-.315.21q-.175.14-.385.28l-.35.28q-.56.42-1.225.875A6.409,6.409,0,0,1,206.01.21a4.832,4.832,0,0,1-1.61.42q-.28.14-.525.245a3.463,3.463,0,0,1-.525.175,1.121,1.121,0,0,1-.56,0,.871.871,0,0,0-.49,0q-.14.14-.21.14a7.5,7.5,0,0,1-1.82.07,7.5,7.5,0,0,0-1.82.07.2.2,0,0,0-.14.07.285.285,0,0,1-.21.07.2.2,0,0,1-.14-.07.2.2,0,0,0-.14-.07,4.023,4.023,0,0,0-1.33-.07,4.023,4.023,0,0,1-1.33-.07,1.669,1.669,0,0,0-.525-.105,1.285,1.285,0,0,1-.6-.175q-.63-.21-1.365-.42a5.046,5.046,0,0,1-1.295-.56.879.879,0,0,0-.35-.21.879.879,0,0,1-.35-.21.528.528,0,0,1-.21-.175.528.528,0,0,0-.21-.175q-.35-.28-.77-.56a3.06,3.06,0,0,1-.7-.63,23.934,23.934,0,0,1-1.4-2.135,18.714,18.714,0,0,1-1.12-2.275,14.115,14.115,0,0,1-.49-2.1l-.21-.28a2.757,2.757,0,0,1-.035-.77,2.545,2.545,0,0,0-.105-.91,12.287,12.287,0,0,1-.245-1.715A6.145,6.145,0,0,1,185.22-14a.143.143,0,0,1,.035-.1.277.277,0,0,0,.035-.175,1.034,1.034,0,0,0,.035-.7,1.427,1.427,0,0,1-.035-.7q.14-.63.28-1.4a13.549,13.549,0,0,1,.35-1.47l.21-.98a5.85,5.85,0,0,1,.42-1.225,5.85,5.85,0,0,0,.42-1.225l.56-1.12,1.54-2.38a8.354,8.354,0,0,1,.8-.84,1.739,1.739,0,0,0,.6-1.05.927.927,0,0,0-.14-.455,4.816,4.816,0,0,1-.28-.595,2.735,2.735,0,0,0-.49-1.015,3.035,3.035,0,0,1-.49-.875q-.14-.42-.28-.805t-.28-.875a1.18,1.18,0,0,1-.14-.525,1.659,1.659,0,0,0-.14-.6l-.28-.84-.14-1.26q-.14-.98-.245-2.45a8.916,8.916,0,0,1,.1-2.45,1.034,1.034,0,0,0,.035-.7,1.427,1.427,0,0,1-.035-.7q.07-.14.1-.14t.035-.14a1.569,1.569,0,0,0,.1-.735,3.152,3.152,0,0,1,.035-.805,2.06,2.06,0,0,1,.21-.525,1.977,1.977,0,0,0,.21-.6,6.074,6.074,0,0,1,.98-2.24,3.349,3.349,0,0,0,.42-.875,2.408,2.408,0,0,1,.42-.805,7.569,7.569,0,0,1,1.75-1.96,10.581,10.581,0,0,1,2.38-1.47,3.388,3.388,0,0,1,.665-.315q.315-.105.8-.245.35-.14.7-.315a2.706,2.706,0,0,1,.77-.245,3.1,3.1,0,0,1,.98-.14A2.485,2.485,0,0,0,199.15-53.2Zm-4.13,34.58a.7.7,0,0,0-.175.42,1.728,1.728,0,0,1-.175.56.8.8,0,0,1-.175.315.934.934,0,0,0-.175.245.887.887,0,0,0-.105.525,1.362,1.362,0,0,1-.035.525,2.5,2.5,0,0,1-.21.63,2.5,2.5,0,0,0-.21.63,7.109,7.109,0,0,0-.21,1.015,2.468,2.468,0,0,0,.07,1.015q0,.14.035.14t.1.14a1.322,1.322,0,0,1-.035.665,1.129,1.129,0,0,0,.035.735.863.863,0,0,0,.14.49,4.576,4.576,0,0,1,.28.49,13.323,13.323,0,0,0,.56,1.26,1.8,1.8,0,0,0,.84.91q.63.35,1.295.735a4.582,4.582,0,0,0,1.295.525,4.562,4.562,0,0,0,1.435.07,5.913,5.913,0,0,0,1.295-.21,7.519,7.519,0,0,0,1.715-.63q1.015-.49,1.155-1.12t-.21-.875a1.941,1.941,0,0,1-.56-.6q-.07,0-.035-.07a.114.114,0,0,0-.035-.14,3.68,3.68,0,0,0-.56-.7,5.037,5.037,0,0,1-.63-.77l-1.61-2.17a2.69,2.69,0,0,0-.42-.455,1.392,1.392,0,0,1-.35-.455q-.56-.77-1.155-1.505T197.05-17.78q-.21-.35-.56-.84a1.975,1.975,0,0,0-.63-.63.729.729,0,0,0-.42.07q-.07,0-.245.21A.608.608,0,0,0,195.02-18.62Z" transform="matrix(1, 0, 0, 1, 763, -16626)" fill="#fff"/></g></svg>